<svg width="128" height="136" viewBox="0 0 128 136" fill="none" xmlns="http://www.w3.org/2000/svg">
<path d="M18.5681 117.064C16.9681 109.864 11.5681 110.064 9.06811 111.064C5.73471 112.731 -0.7321 117.364 0.0678997 122.564C0.8679 127.764 3.40123 130.398 4.5679 131.064C6.23457 132.064 11.1679 134.264 17.5679 135.064C23.9679 135.864 33.6984 128.128 35.0681 126.564C36.4378 125 39.0679 120.564 39.0679 120.564C40.068 122.564 42.6681 127.164 45.0679 129.564C47.4677 131.964 51.3828 134.007 56.0679 135.064C58 135.5 63.107 135.041 68.0679 133.564C74.3087 131.706 81.0679 125.064 83.5679 121.564C86.5679 116.731 92.3679 106.464 91.5679 104.064C90.7679 101.664 88.5679 102.398 87.5679 103.064C86.2346 107.398 81.9679 117.664 75.5679 124.064C69.1679 130.464 61.9012 131.064 59.0679 130.564C56.7346 130.231 51.7679 128.164 50.5679 122.564C49.3679 116.964 51.0679 108.564 52.0679 105.064C52.0679 105.064 57.6358 83.6284 59.0679 78.0642C60.5 72.5 60.8679 65.7642 66.0679 58.5642C71.2679 51.3642 78.5679 50.5642 81.5679 51.0642L84.5679 51.5642C84.9012 51.5642 85.9679 51.6642 87.5679 52.0642C89.1679 52.4642 89.2346 53.2309 89.0679 53.5642C89.0679 53.2309 88.2679 52.9642 85.0679 54.5642C81.8679 56.1642 80.0679 60.8975 79.5679 63.0642C79.4012 65.3975 80.7679 70.1642 87.5679 70.5642C94.3679 70.9642 97.0679 62.7309 97.5679 58.5642C97.5679 58.0642 97.3679 56.4642 96.5679 54.0642C95.7679 51.6642 91.9321 49.4358 90 48.5C81.9321 46.4358 79.4321 46.4358 78 46.5C76.1809 46.5816 73.5 46.803 73 47C72.5 47.197 69 47.8154 65.0679 52.0642C60.5 57 60.4012 58.8975 59.0679 61.0642C58.5679 60.0642 57.2679 57.5642 56.0679 55.5643C54.8679 53.5644 51.2346 50.731 49.5679 49.5644C46.5679 47.8977 38.6679 45.0644 31.0679 47.0644C23.4679 49.0644 16.5679 56.231 14.0679 59.5644L9.06811 68.5644C7.73478 70.731 5.36811 75.5644 6.56811 77.5644C7.76811 79.5644 10.0681 78.3977 11.0681 77.5644C12.2348 74.0643 15.6681 65.5643 20.0681 59.5644C24.4681 53.5644 32.9014 51.0643 36.5681 50.5643C38.4014 50.3976 42.9681 51.1643 46.5681 55.5643C50.1681 59.9643 49.0681 65.0643 48.0681 67.0643L42.0681 92.0643C41.0681 97.3976 38.2681 109.864 35.0681 117.064C31.8681 124.264 28.7348 127.064 27.5681 127.564C25.7348 128.731 21.6681 131.064 20.0681 131.064C18.4681 131.064 14.2364 131.195 11.0681 129.564C9 128.5 9.06811 127.564 9.06811 127.564C12.9014 127.064 20.1681 124.264 18.5681 117.064Z" fill="#2C7B8C"/>
<path d="M102.448 50.36C108.336 45.944 112.88 41.992 116.08 38.504C119.312 34.984 120.928 31.544 120.928 28.184C120.928 25.976 120.368 24.216 119.248 22.904C118.16 21.56 116.368 20.888 113.872 20.888C111.44 20.888 109.552 21.656 108.208 23.192C106.896 24.696 106.16 26.712 106 29.24H102.736C102.928 25.688 104.016 22.936 106 20.984C108.016 19 110.64 18.008 113.872 18.008C116.976 18.008 119.488 18.888 121.408 20.648C123.328 22.376 124.288 24.84 124.288 28.04C124.288 31.912 122.672 35.672 119.44 39.32C116.24 42.936 112.288 46.472 107.584 49.928H125.344V52.76H102.448V50.36Z" fill="#2C7B8C"/>
</svg>
