<svg width="205" height="205" viewBox="0 0 205 205" fill="none" xmlns="http://www.w3.org/2000/svg">
<mask id="mask0" mask-type="alpha" maskUnits="userSpaceOnUse" x="0" y="0" width="205" height="205">
<circle cx="102.5" cy="102.5" r="102.5" fill="#339786"/>
</mask>
<g mask="url(#mask0)">
<rect x="32" y="103.033" width="100.455" height="100.456" transform="rotate(-45 32 103.033)" fill="#2C7B8C"/>
<path d="M54.872 96.184H57.032V98.44H54.872V96.184ZM54.872 100.384H57.032V112H54.872V100.384ZM61.8103 101.8H59.1463V100.384H61.8103V98.512C61.8103 97.248 62.1623 96.344 62.8663 95.8C63.5863 95.24 64.6743 94.96 66.1303 94.96C66.6743 94.96 67.3223 95 68.0743 95.08V96.496C67.4663 96.416 66.8423 96.376 66.2023 96.376C65.4023 96.376 64.8263 96.52 64.4743 96.808C64.1383 97.096 63.9703 97.616 63.9703 98.368V100.384H67.8343V101.8H63.9703V112H61.8103V101.8Z" fill="#FF7253"/>
<path d="M79.0027 112.24C77.8987 112.24 77.0427 112.136 76.4347 111.928C75.8427 111.72 75.4107 111.352 75.1387 110.824C74.8827 110.296 74.7547 109.536 74.7547 108.544C74.7547 107.664 74.8747 106.984 75.1147 106.504C75.3707 106.008 75.7947 105.656 76.3867 105.448C76.9947 105.24 77.8507 105.136 78.9547 105.136H82.4347V103.288C82.4347 102.856 82.3467 102.528 82.1707 102.304C82.0107 102.064 81.7307 101.896 81.3307 101.8C80.9467 101.704 80.3787 101.656 79.6267 101.656C78.4267 101.656 77.0987 101.752 75.6427 101.944V100.36C77.2267 100.216 78.6587 100.144 79.9387 100.144C81.2827 100.144 82.2747 100.248 82.9147 100.456C83.5547 100.648 83.9947 100.992 84.2347 101.488C84.4747 101.984 84.5947 102.752 84.5947 103.792V112H82.5067V110.896C82.3307 111.792 81.1627 112.24 79.0027 112.24ZM79.3627 110.824C80.1467 110.824 80.8107 110.768 81.3547 110.656C82.0747 110.512 82.4347 110.176 82.4347 109.648V106.48H79.0987C78.4107 106.48 77.9147 106.536 77.6107 106.648C77.3067 106.744 77.1067 106.936 77.0107 107.224C76.9147 107.512 76.8667 107.976 76.8667 108.616C76.8667 109.192 76.9227 109.64 77.0347 109.96C77.1467 110.264 77.3467 110.488 77.6347 110.632C77.9227 110.76 78.3547 110.824 78.9307 110.824H79.3627ZM144.97 112.24C144.106 112.24 143.41 112.192 142.882 112.096C142.37 112.016 141.858 111.856 141.346 111.616C140.306 111.12 139.786 109.984 139.786 108.208V95.2H141.946V98.68V100.048C141.93 100.464 141.922 100.928 141.922 101.44C142.002 101.072 142.338 100.76 142.93 100.504C143.538 100.264 144.418 100.144 145.57 100.144C148.77 100.144 150.37 101.24 150.37 103.432V108.208C150.37 108.896 150.266 109.496 150.058 110.008C149.866 110.52 149.61 110.92 149.29 111.208C149.002 111.48 148.602 111.696 148.09 111.856C147.594 112.016 147.098 112.12 146.602 112.168C146.154 112.216 145.61 112.24 144.97 112.24ZM145.018 110.824C145.85 110.824 146.482 110.768 146.914 110.656C147.362 110.528 147.682 110.304 147.874 109.984C148.066 109.664 148.162 109.176 148.162 108.52V103.96C148.162 103.304 148.066 102.816 147.874 102.496C147.682 102.16 147.362 101.944 146.914 101.848C146.482 101.736 145.842 101.68 144.994 101.68C144.21 101.68 143.602 101.744 143.17 101.872C142.738 102 142.426 102.232 142.234 102.568C142.042 102.888 141.946 103.352 141.946 103.96V108.52C141.946 109.176 142.034 109.664 142.21 109.984C142.402 110.304 142.714 110.528 143.146 110.656C143.578 110.768 144.202 110.824 145.018 110.824Z" fill="#D3D3D3"/>
<path d="M97.448 112.24C96.344 112.24 95.488 112.136 94.88 111.928C94.288 111.72 93.856 111.352 93.584 110.824C93.328 110.296 93.2 109.536 93.2 108.544C93.2 107.664 93.32 106.984 93.56 106.504C93.816 106.008 94.24 105.656 94.832 105.448C95.44 105.24 96.296 105.136 97.4 105.136H100.88V103.288C100.88 102.856 100.792 102.528 100.616 102.304C100.456 102.064 100.176 101.896 99.776 101.8C99.392 101.704 98.824 101.656 98.072 101.656C96.872 101.656 95.544 101.752 94.088 101.944V100.36C95.672 100.216 97.104 100.144 98.384 100.144C99.728 100.144 100.72 100.248 101.36 100.456C102 100.648 102.44 100.992 102.68 101.488C102.92 101.984 103.04 102.752 103.04 103.792V112H100.952V110.896C100.776 111.792 99.608 112.24 97.448 112.24ZM97.808 110.824C98.592 110.824 99.256 110.768 99.8 110.656C100.52 110.512 100.88 110.176 100.88 109.648V106.48H97.544C96.856 106.48 96.36 106.536 96.056 106.648C95.752 106.744 95.552 106.936 95.456 107.224C95.36 107.512 95.312 107.976 95.312 108.616C95.312 109.192 95.368 109.64 95.48 109.96C95.592 110.264 95.792 110.488 96.08 110.632C96.368 110.76 96.8 110.824 97.376 110.824H97.808ZM106.786 100.384H108.946V101.8C109.17 100.696 110.442 100.144 112.762 100.144C114.25 100.144 115.29 100.416 115.882 100.96C116.49 101.488 116.794 102.328 116.794 103.48V112H114.634V103.6C114.634 103.296 114.61 103.048 114.562 102.856C114.514 102.664 114.418 102.472 114.274 102.28C113.954 101.88 113.242 101.68 112.138 101.68C111.29 101.68 110.634 101.744 110.17 101.872C109.722 101.984 109.402 102.176 109.21 102.448C109.034 102.72 108.946 103.104 108.946 103.6V112H106.786V100.384ZM124.696 112.24C123.544 112.24 122.64 112.128 121.984 111.904C121.328 111.664 120.848 111.28 120.544 110.752C120.256 110.224 120.112 109.488 120.112 108.544V103.432C120.112 102.264 120.472 101.424 121.192 100.912C121.928 100.4 123.136 100.144 124.816 100.144C125.824 100.144 126.688 100.272 127.408 100.528C128.144 100.784 128.52 101.152 128.536 101.632H128.584L128.536 98.68V95.2H130.696V112H128.584V110.632C128.584 111.064 128.24 111.432 127.552 111.736C126.864 112.072 125.912 112.24 124.696 112.24ZM125.152 110.752C126.352 110.752 127.216 110.616 127.744 110.344C128.272 110.072 128.536 109.608 128.536 108.952V103.216C128.536 102.176 127.472 101.656 125.344 101.656C124.064 101.656 123.232 101.752 122.848 101.944C122.448 102.136 122.248 102.56 122.248 103.216V108.952C122.248 109.608 122.464 110.072 122.896 110.344C123.344 110.616 124.096 110.752 125.152 110.752Z" fill="#91E3D5"/>
<path d="M191.354 103.354C191.549 103.158 191.549 102.842 191.354 102.646L188.172 99.4645C187.976 99.2692 187.66 99.2692 187.464 99.4645C187.269 99.6597 187.269 99.9763 187.464 100.172L190.293 103L187.464 105.828C187.269 106.024 187.269 106.34 187.464 106.536C187.66 106.731 187.976 106.731 188.172 106.536L191.354 103.354ZM170 103.5H191V102.5H170V103.5Z" fill="#2C7B8C"/>
<path d="M14.6464 102.646C14.4512 102.842 14.4512 103.158 14.6464 103.354L17.8284 106.536C18.0237 106.731 18.3403 106.731 18.5355 106.536C18.7308 106.34 18.7308 106.024 18.5355 105.828L15.7071 103L18.5355 100.172C18.7308 99.9763 18.7308 99.6597 18.5355 99.4645C18.3403 99.2692 18.0237 99.2692 17.8284 99.4645L14.6464 102.646ZM38 102.5H15V103.5H38V102.5Z" fill="#2C7B8C"/>
</g>
</svg>
